<svg width="40" height="40" viewBox="0 0 40 40" fill="none" xmlns="http://www.w3.org/2000/svg">
<path d="M32.6512 5H7.34884C4.94512 5 3 6.89231 3 9.23077V30.7692C3 33.1077 4.94512 35 7.34884 35H32.6512C35.0549 35 37 33.1077 37 30.7692V9.23077C37 6.89231 35.0549 5 32.6512 5ZM17.6753 20.8154L11.7609 26.5692C11.5237 26.8 11.2233 26.9077 10.9228 26.9077C10.6223 26.9077 10.3219 26.8 10.0847 26.5692C9.62605 26.1231 9.62605 25.3846 10.0847 24.9385L15.1609 20L10.0847 15.0615C9.62605 14.6154 9.62605 13.8769 10.0847 13.4308C10.5433 12.9846 11.3023 12.9846 11.7609 13.4308L17.6753 19.1846C18.134 19.6308 18.134 20.3692 17.6753 20.8154ZM29.4884 26.9077H20C19.3516 26.9077 18.814 26.3846 18.814 25.7538C18.814 25.1231 19.3516 24.6 20 24.6H29.4884C30.1367 24.6 30.6744 25.1231 30.6744 25.7538C30.6744 26.3846 30.1367 26.9077 29.4884 26.9077Z" fill="white"/>
</svg>
