<svg width="24" height="24" viewBox="0 0 24 24" fill="none" xmlns="http://www.w3.org/2000/svg">
<g id="Frame 120">
<rect width="24" height="24" fill="#34A5FF"/>
<path id="Vector" d="M17.9535 5H6.04651C4.91535 5 4 5.88308 4 6.97436V17.0256C4 18.1169 4.91535 19 6.04651 19H17.9535C19.0847 19 20 18.1169 20 17.0256V6.97436C20 5.88308 19.0847 5 17.9535 5ZM10.906 12.3805L8.12279 15.0656C8.01116 15.1733 7.86977 15.2236 7.72837 15.2236C7.58698 15.2236 7.44558 15.1733 7.33395 15.0656C7.11814 14.8574 7.11814 14.5128 7.33395 14.3046L9.72279 12L7.33395 9.69538C7.11814 9.48718 7.11814 9.14256 7.33395 8.93436C7.54977 8.72615 7.90698 8.72615 8.12279 8.93436L10.906 11.6195C11.1219 11.8277 11.1219 12.1723 10.906 12.3805ZM16.4651 15.2236H12C11.6949 15.2236 11.4419 14.9795 11.4419 14.6851C11.4419 14.3908 11.6949 14.1467 12 14.1467H16.4651C16.7702 14.1467 17.0233 14.3908 17.0233 14.6851C17.0233 14.9795 16.7702 15.2236 16.4651 15.2236Z" fill="white"/>
</g>
</svg>
