<svg width="40" height="40" viewBox="0 0 40 40" fill="none" xmlns="http://www.w3.org/2000/svg">
<path d="M21.5321 21.6345L18.9401 24.2267L15.7733 21.0598L18.3653 18.4678C18.9397 17.8935 18.9397 16.9588 18.3653 16.3845C17.791 15.8101 16.8564 15.8101 16.282 16.3845L13.6898 18.9765L12.388 17.6748C12.0428 17.3294 11.4831 17.3295 11.1379 17.6748L9.2574 19.5551C8.91223 19.9003 8.91223 20.46 9.2574 20.8052L9.53806 21.0859L5.28877 25.3351C5.09096 25.533 4.99847 25.8128 5.03944 26.0895L5.69426 30.5142L2.25888 33.9495C1.91371 34.2946 1.91371 34.8544 2.25888 35.1995L4.8005 37.7411C5.14567 38.0863 5.70532 38.0863 6.05049 37.7411L9.48595 34.3056L13.9106 34.9605C14.1873 35.0014 14.4672 34.9091 14.665 34.7111L18.9142 30.4619L19.1948 30.7425C19.54 31.0876 20.0997 31.0876 20.4449 30.7425L22.3253 28.8619C22.6706 28.517 22.6706 27.957 22.3253 27.6119L21.0235 26.3101L23.6155 23.718C24.1898 23.1437 24.1898 22.209 23.6155 21.6346C23.0411 21.0602 22.1066 21.0602 21.5321 21.6345Z" fill="white"/>
<path d="M37.7411 4.80054L35.1996 2.25875C34.8545 1.91375 34.2947 1.91375 33.9496 2.25875L30.5141 5.6943L26.0894 5.0394C25.8127 4.99851 25.5328 5.09092 25.335 5.28889L21.0858 9.5381L20.8052 9.25736C20.4601 8.91227 19.9003 8.9121 19.5551 9.25736L17.6746 11.1379C17.3294 11.483 17.3294 12.0427 17.6746 12.3879L27.6119 22.3253C27.957 22.6704 28.5168 22.6704 28.8621 22.3253L30.7425 20.4447C31.0876 20.0995 31.0876 19.5398 30.7425 19.1947L30.4618 18.914L34.711 14.6647C34.9089 14.467 35.0013 14.1873 34.9605 13.9104L34.3056 9.48583L37.7411 6.05036C38.0864 5.70528 38.0864 5.14546 37.7411 4.80054Z" fill="white"/>
</svg>
