<svg width="24" height="24" viewBox="0 0 24 24" fill="none" xmlns="http://www.w3.org/2000/svg">
<g id="Frame 116">
<rect width="24" height="24" fill="#34A5FF"/>
<g id="Vector">
<path d="M12.766 12.8173L11.47 14.1133L9.88663 12.5299L11.1827 11.2339C11.4698 10.9468 11.4698 10.4794 11.1827 10.1922C10.8955 9.90504 10.4282 9.90504 10.141 10.1922L8.84491 11.4883L8.19399 10.8374C8.0214 10.6647 7.74154 10.6647 7.56895 10.8374L6.6287 11.7775C6.45611 11.9501 6.45611 12.23 6.6287 12.4026L6.76903 12.543L4.64438 14.6675C4.54548 14.7665 4.49923 14.9064 4.51972 15.0447L4.84713 17.2571L3.12944 18.9747C2.95685 19.1473 2.95685 19.4272 3.12944 19.5997L4.40025 20.8705C4.57283 21.0431 4.85266 21.0431 5.02524 20.8705L6.74297 19.1528L8.95529 19.4802C9.09366 19.5007 9.23361 19.4545 9.33247 19.3555L11.4571 17.2309L11.5974 17.3713C11.77 17.5438 12.0499 17.5438 12.2224 17.3713L13.1627 16.431C13.3353 16.2585 13.3353 15.9785 13.1627 15.806L12.5117 15.155L13.8078 13.859C14.0949 13.5718 14.0949 13.1045 13.8078 12.8173C13.5205 12.5301 13.0533 12.5301 12.766 12.8173Z" fill="white"/>
<path d="M20.8705 4.40027L19.5998 3.12938C19.4272 2.95687 19.1473 2.95687 18.9748 3.12938L17.257 4.84715L15.0447 4.5197C14.9063 4.49925 14.7664 4.54546 14.6675 4.64444L12.5429 6.76905L12.4026 6.62867C12.23 6.45613 11.9502 6.45605 11.7775 6.62867L10.8373 7.56893C10.6647 7.74152 10.6647 8.02134 10.8373 8.19397L15.8059 13.1626C15.9785 13.3352 16.2584 13.3352 16.431 13.1626L17.3712 12.2223C17.5438 12.0497 17.5438 11.7699 17.3712 11.5973L17.2309 11.457L19.3555 9.33236C19.4544 9.2335 19.5007 9.09363 19.4802 8.95519L19.1528 6.74291L20.8705 5.02518C21.0432 4.85264 21.0432 4.57273 20.8705 4.40027Z" fill="white"/>
</g>
</g>
</svg>
