<svg width="40" height="40" viewBox="0 0 40 40" fill="none" xmlns="http://www.w3.org/2000/svg">
<path fill-rule="evenodd" clip-rule="evenodd" d="M23.8778 4.003C23.2722 3.357 22.4594 3 21.6147 3H10.1875C8.43437 3 7 4.53 7 6.4V33.6C7 35.47 8.41844 37 10.1716 37H29.3125C31.0656 37 32.5 35.47 32.5 33.6V14.611C32.5 13.71 32.1653 12.843 31.5597 12.214L23.8778 4.003ZM24.5312 30.2H14.9688C14.0922 30.2 13.375 29.435 13.375 28.5C13.375 27.565 14.0922 26.8 14.9688 26.8H24.5312C25.4078 26.8 26.125 27.565 26.125 28.5C26.125 29.435 25.4078 30.2 24.5312 30.2ZM24.5312 23.4H14.9688C14.0922 23.4 13.375 22.635 13.375 21.7C13.375 20.765 14.0922 20 14.9688 20H24.5312C25.4078 20 26.125 20.765 26.125 21.7C26.125 22.635 25.4078 23.4 24.5312 23.4ZM21.3438 13.2V5.55L30.1094 14.9H22.9375C22.0609 14.9 21.3438 14.135 21.3438 13.2Z" fill="white"/>
</svg>
