<svg width="24" height="24" viewBox="0 0 24 24" fill="none" xmlns="http://www.w3.org/2000/svg">
<g id="Frame 117">
<rect width="24" height="24" fill="#34A5FF"/>
<path id="Union" fill-rule="evenodd" clip-rule="evenodd" d="M13.9425 4.472C13.6575 4.168 13.275 4 12.8775 4H7.5C6.675 4 6 4.72 6 5.6V18.4C6 19.28 6.6675 20 7.4925 20H16.5C17.325 20 18 19.28 18 18.4V9.464C18 9.04 17.8425 8.632 17.5575 8.336L13.9425 4.472ZM14.25 16.8H9.75C9.3375 16.8 9 16.44 9 16C9 15.56 9.3375 15.2 9.75 15.2H14.25C14.6625 15.2 15 15.56 15 16C15 16.44 14.6625 16.8 14.25 16.8ZM14.25 13.6H9.75C9.3375 13.6 9 13.24 9 12.8C9 12.36 9.3375 12 9.75 12H14.25C14.6625 12 15 12.36 15 12.8C15 13.24 14.6625 13.6 14.25 13.6ZM12.75 8.8V5.2L16.875 9.6H13.5C13.0875 9.6 12.75 9.24 12.75 8.8Z" fill="white"/>
</g>
</svg>
