<svg width="24" height="24" viewBox="0 0 24 24" fill="none" xmlns="http://www.w3.org/2000/svg">
<rect width="24" height="24" fill="#34A5FF"/>
<path d="M19.5594 15.3452L21.9642 17.75L19.5594 20.1547L17.1547 17.75L11.4166 12.0119H11.4285L14.738 8.58329L12.7975 6.70233L7.58325 12.0833L12.8809 17.3809L14.8452 15.4166L17.2499 17.8214L14.8333 20.238L12.4642 17.869L10.2142 20.119L7.82135 17.7142L2.08325 11.9642L2.09516 11.9523L7.74992 6.13091L10.0952 3.69043L12.5356 6.05948L14.7142 3.82138L17.1071 6.14281L19.4404 3.73805L21.8809 6.09519L19.5118 8.53567L17.5237 6.6071L12.3094 12L17.6071 17.2976L19.5594 15.3452ZM10.1666 8.49995L8.19039 6.57138L2.9642 11.9523L8.26182 17.25L10.0594 15.4523L6.69039 12.0833L10.1666 8.49995Z" fill="white"/>
</svg>
