<svg width="40" height="40" viewBox="0 0 40 40" fill="none" xmlns="http://www.w3.org/2000/svg">
<g clip-path="url(#clip0_14735_12224)">
<path d="M35.1617 26.4491L40 31.2874L35.1617 36.1257L18.7784 19.7425H18.8024L25.4611 12.8443L21.5569 9.05988L11.0659 19.8862L21.7245 30.5449L25.6766 26.5928L30.515 31.4311L25.6527 36.2934L20.8862 31.5269L16.3593 36.0539L11.5449 31.2156L0 19.6467L0.0239517 19.6228L11.4012 7.91018L16.1198 3L21.0299 7.76647L25.4132 3.26347L30.2275 7.93413L34.9222 3.09581L39.8323 7.83832L35.0659 12.7485L31.0659 8.86826L20.5749 19.7186L31.2335 30.3772L35.1617 26.4491ZM16.2635 12.6766L12.2874 8.79641L1.77245 19.6228L12.4311 30.2814L16.0479 26.6647L9.26946 19.8862L16.2635 12.6766Z" fill="white"/>
</g>
<defs>
<clipPath id="clip0_14735_12224">
<rect width="40" height="40" fill="white"/>
</clipPath>
</defs>
</svg>
