<svg width="40" height="40" viewBox="0 0 40 40" fill="none" xmlns="http://www.w3.org/2000/svg">
<path d="M12.2727 21.5455V35.4545C12.2727 35.8644 12.1099 36.2575 11.8201 36.5473C11.5302 36.8372 11.1372 37 10.7273 37H4.54545C4.13557 37 3.74248 36.8372 3.45265 36.5473C3.16282 36.2575 3 35.8644 3 35.4545V21.5455C3 21.1356 3.16282 20.7425 3.45265 20.4527C3.74248 20.1628 4.13557 20 4.54545 20H10.7273C11.1372 20 11.5302 20.1628 11.8201 20.4527C12.1099 20.7425 12.2727 21.1356 12.2727 21.5455ZM23.0909 3H16.9091C16.4992 3 16.1061 3.16282 15.8163 3.45265C15.5265 3.74248 15.3636 4.13557 15.3636 4.54545V35.4545C15.3636 35.8644 15.5265 36.2575 15.8163 36.5473C16.1061 36.8372 16.4992 37 16.9091 37H23.0909C23.5008 37 23.8939 36.8372 24.1837 36.5473C24.4735 36.2575 24.6364 35.8644 24.6364 35.4545V4.54545C24.6364 4.13557 24.4735 3.74248 24.1837 3.45265C23.8939 3.16282 23.5008 3 23.0909 3ZM35.4545 10.7273H29.2727C28.8628 10.7273 28.4698 10.8901 28.1799 11.1799C27.8901 11.4698 27.7273 11.8628 27.7273 12.2727V35.4545C27.7273 35.8644 27.8901 36.2575 28.1799 36.5473C28.4698 36.8372 28.8628 37 29.2727 37H35.4545C35.8644 37 36.2575 36.8372 36.5473 36.5473C36.8372 36.2575 37 35.8644 37 35.4545V12.2727C37 11.8628 36.8372 11.4698 36.5473 11.1799C36.2575 10.8901 35.8644 10.7273 35.4545 10.7273Z" fill="white"/>
</svg>
