<svg width="24" height="24" viewBox="0 0 24 24" fill="none" xmlns="http://www.w3.org/2000/svg">
<g id="Frame 118">
<rect width="24" height="24" fill="#34A5FF"/>
<path id="Vector" d="M8.36364 12.7273V19.2727C8.36364 19.4656 8.28701 19.6506 8.15062 19.787C8.01423 19.9234 7.82925 20 7.63636 20H4.72727C4.53439 20 4.3494 19.9234 4.21301 19.787C4.07662 19.6506 4 19.4656 4 19.2727V12.7273C4 12.5344 4.07662 12.3494 4.21301 12.213C4.3494 12.0766 4.53439 12 4.72727 12H7.63636C7.82925 12 8.01423 12.0766 8.15062 12.213C8.28701 12.3494 8.36364 12.5344 8.36364 12.7273ZM13.4545 4H10.5455C10.3526 4 10.1676 4.07662 10.0312 4.21301C9.8948 4.3494 9.81818 4.53439 9.81818 4.72727V19.2727C9.81818 19.4656 9.8948 19.6506 10.0312 19.787C10.1676 19.9234 10.3526 20 10.5455 20H13.4545C13.6474 20 13.8324 19.9234 13.9688 19.787C14.1052 19.6506 14.1818 19.4656 14.1818 19.2727V4.72727C14.1818 4.53439 14.1052 4.3494 13.9688 4.21301C13.8324 4.07662 13.6474 4 13.4545 4ZM19.2727 7.63636H16.3636C16.1708 7.63636 15.9858 7.71299 15.8494 7.84938C15.713 7.98577 15.6364 8.17075 15.6364 8.36364V19.2727C15.6364 19.4656 15.713 19.6506 15.8494 19.787C15.9858 19.9234 16.1708 20 16.3636 20H19.2727C19.4656 20 19.6506 19.9234 19.787 19.787C19.9234 19.6506 20 19.4656 20 19.2727V8.36364C20 8.17075 19.9234 7.98577 19.787 7.84938C19.6506 7.71299 19.4656 7.63636 19.2727 7.63636Z" fill="white"/>
</g>
</svg>
